PathFileType	4	(X/Y/Z)	40_1_tpose_p1_0-225.trc
DataRate	CameraRate	NumFrames	NumMarkers	Units	OrigDataRate	OrigDataStartFrame	OrigNumFrames
60.0	60.0	5	27	m	60.0	0	226
Frame#	Time	RHip			RKnee			RAnkle			RBigToe			RSmallToe			RHeel			LHip			LKnee			LAnkle			LBigToe			LSmallToe			LHeel			Neck			Head			Nose			RShoulder			RElbow			RWrist			RThumb			RIndex			RPinky			LShoulder			LElbow			LWrist			LThumb			LIndex			LPinky			
		X1	Y1	Z1	X2	Y2	Z2	X3	Y3	Z3	X4	Y4	Z4	X5	Y5	Z5	X6	Y6	Z6	X7	Y7	Z7	X8	Y8	Z8	X9	Y9	Z9	X10	Y10	Z10	X11	Y11	Z11	X12	Y12	Z12	X13	Y13	Z13	X14	Y14	Z14	X15	Y15	Z15	X16	Y16	Z16	X17	Y17	Z17	X18	Y18	Z18	X19	Y19	Z19	X20	Y20	Z20	X21	Y21	Z21	X22	Y22	Z22	X23	Y23	Z23	X24	Y24	Z24	X25	Y25	Z25	X26	Y26	Z26	X27	Y27	Z27	
0	0.0	0.3027390876625787	0.5876895820951131	0.8373136506621671	0.3161834911127421	0.70866140608655	1.2693279226055691	0.32969433273812176	0.8479241628556462	1.6655524391525576	0.30818127330371986	0.7402551834270108	1.734955994094099	0.381108062879284	0.7316276716774263	1.7218663193283545	0.3068923975772146	0.9213389934078284	1.724152717441015	0.13123369773056368	0.5800176218081017	0.8306376093010112	0.10184350366407281	0.7400381561029735	1.262590184933845	0.10163179483783298	0.8621286767595069	1.6740258785695445	0.1485913684494346	0.6582946513814282	1.7029133641953902	0.08151751339497437	0.725830887757517	1.7239212190369502	0.11031123862836312	0.9265829717133921	1.7381628493480905	0.25241544726101667	0.4543713364673647	0.28992528587792815	0.2569943280877965	0.35370213153369334	0.07784637587547019	0.2546845599511966	0.3008220167862361	0.2129136691335742	0.36623864874114176	0.4852028249102151	0.3644775301850849	0.6281986339256234	0.4942794540676974	0.3787462747352695	0.8981597092285489	0.5007629200481974	0.3775775864851279	1.0348538339144309	0.5282414241001193	0.3868855074574384	1.060177249581666	0.5283368091501982	0.3817476560555793	1.0193451036153733	0.5644386373061213	0.39348347603703226	0.0939893211332764	0.47348211682303654	0.34991760785831144	-0.14381114681401644	0.41848394355380497	0.35405200054064667	-0.3881353878196885	0.3595600519816815	0.34733892190291016	-0.5014434373677645	0.34826130179468034	0.3587861723908098	-0.5169642957500534	0.36721102253298765	0.34340962892511395	-0.5024323271784796	0.36192636527585775	0.34735964549552234
1	0.016666666666666666	0.3028646258620477	0.5873620039494192	0.8372153096913619	0.31617905582904887	0.7085681513566235	1.2693863347729168	0.32708980766679885	0.8330246439729238	1.660928419206258	0.3071636944718193	0.7412815662727523	1.738634259212074	0.3812158024190221	0.7313021054511976	1.72156831372904	0.3046967037033626	0.9297162841216748	1.7269430495019593	0.13148145503749237	0.5816734386627064	0.8349267981065578	0.11328969413725035	0.7296753275478507	1.2678640056447887	0.10106405967501186	0.8622837550789045	1.6829987990425557	0.14858657680483772	0.658503662848589	1.7027644948054057	0.08106350223745505	0.7227494866259178	1.7180099822266413	0.1062138998979038	0.9221759145779838	1.7370132100973947	0.2523756015927614	0.4545285647913779	0.2900416497712838	0.25709995846494166	0.3538133294741047	0.07781543731103178	0.2547208488686028	0.3008621499977538	0.21298385510066456	0.36872091151039516	0.4966408439476864	0.36363360504198505	0.631032789756759	0.5043011460398227	0.3748148530414458	0.8932759075306808	0.49766056030372086	0.3709150830897627	1.0266175961505475	0.517271149216448	0.38851453180833745	1.0570836050024053	0.5422564838457687	0.3748125334850047	1.0175121649391015	0.5537478716420056	0.3832223689253213	0.09396859866397188	0.47356690387337735	0.3499140111115687	-0.14391668009598496	0.4193098092854508	0.3542631947109107	-0.38824126142143506	0.359973862041839	0.34738619169099283	-0.497924911118153	0.3507285748028802	0.3587090172987568	-0.5246632398370151	0.37907557800516506	0.34662768542926925	-0.4977134879402682	0.352239789980091	0.3483127851860261
2	0.03333333333333333	0.3080673084529404	0.5715209398833122	0.8315213256751779	0.31961576849926243	0.7123228726485518	1.278608193804524	0.3305281835479675	0.8508288863776773	1.670767136976773	0.30807298102111214	0.7404639720427828	1.7349398696700888	0.3755371011647376	0.7473518265470245	1.728387525328685	0.3078402042245081	0.9246470957481044	1.730161460397121	0.13773964130810554	0.5669839814391028	0.8289422135823382	0.10611169091975882	0.7421130832673799	1.2666987481263938	0.10282966727237415	0.8645011974734408	1.6836886384120486	0.14455254719031874	0.6864921163679152	1.709661622847101	0.08266377321879413	0.7253409291179039	1.7199291931452303	0.10624404065136918	0.9223292881431695	1.7371663533844754	0.2523736970176413	0.4546128762677485	0.2899877563930792	0.2584656255966231	0.3629518383235408	0.07327755035629246	0.25464080839387593	0.301010339413065	0.21296656894144836	0.3687845493702957	0.49657884857796636	0.36364013311996296	0.6314078662700201	0.5210623662835625	0.3737311488547736	0.8937267990638843	0.51029983022092	0.3636178572037532	1.0370106590312067	0.5274793454950808	0.3789396859121185	1.056792723830348	0.5418708118151276	0.3680777299205581	1.0215791624853148	0.5652576586363798	0.37868239118478475	0.09394669900981378	0.4736897277572919	0.3499137115876796	-0.143838903630794	0.4189148544464353	0.35429926632888503	-0.38825814317478313	0.35965891342253903	0.34757412714490393	-0.4831310925035557	0.33126558076944373	0.3622832793293035	-0.5174410281605344	0.36940928886639796	0.3500415336327517	-0.5084769297605964	0.35934149555110184	0.34788831306443824
3	0.05	0.3081005628420216	0.5712714293358434	0.8314844657768216	0.3200283783625483	0.7121745174964995	1.270061410475426	0.3279389928752897	0.835752954708825	1.665962839471964	0.3138128489583419	0.7253689598197085	1.7285972535421092	0.37648612995327363	0.7307450764204063	1.7222459836521482	0.30789842803409806	0.9241497076271536	1.730228234697314	0.1376943523303637	0.5661772037965566	0.8289973298945986	0.10561862571061746	0.7425969556712085	1.2628024679611654	0.10222447256160067	0.8614258352767175	1.6781880809757492	0.15094620452375015	0.6716891599524772	1.703700024891915	0.08209641742192232	0.7255517465906132	1.7281020934257032	0.10617157512122032	0.9227810845592701	1.737384607563956	0.25223083810782715	0.4549725651027498	0.293320509726106	0.25852217420387097	0.3629516343320595	0.07329186991258395	0.25256466362683205	0.313116358621998	0.21157851651711948	0.36887776185151094	0.49659818793371613	0.36363874489742815	0.6318021702490447	0.521068040713519	0.37378056974635604	0.8978794658409688	0.5106296211631416	0.36035522990906244	1.0406177445903435	0.5280248056519267	0.3781361170335554	1.0609249248582802	0.541669788227261	0.36426963714493976	1.017324541888121	0.5651677060340319	0.3749114294167387	0.09389810933366718	0.4736362304922279	0.3499022970711619	-0.13708607734431305	0.4074014388218699	0.35498070286286054	-0.38857959345623416	0.3600256662586391	0.3505159690201589	-0.47586613159031765	0.3217021697699193	0.36553955901798324	-0.5155846743920344	0.3570483623425642	0.351027310996674	-0.5088908196991032	0.3597995848454898	0.34770477740115335
4	0.06666666666666667	0.30811709672713994	0.5712853178147366	0.8315302105803368	0.31807746828278133	0.7229049510157178	1.2775552830998382	0.32801139731473405	0.8357233332332761	1.6659257865509536	0.3137737029727408	0.7255120988198014	1.728786259174896	0.3763772032108274	0.7307228623673347	1.722491319567104	0.30801426065886295	0.9236840108902326	1.7302071304267053	0.13116935991365558	0.579746601053367	0.8306634092807426	0.11286496540597334	0.727522079743136	1.2631508026287503	0.10226461318982778	0.8613002137483333	1.6781827144761308	0.15099368094011498	0.6716065119866742	1.703824679299823	0.08336852963251133	0.7249280043970077	1.7242210249561214	0.10613828109439005	0.922548190889588	1.7374159816639334	0.2523493214053329	0.45469220321513565	0.28999657582891847	0.25851494644252254	0.3644660701258541	0.07602109619794957	0.2525301572518065	0.3132054503048083	0.2115693774131085	0.36888525798194427	0.49666476153977296	0.363627212157785	0.6388157859207544	0.5171554320876505	0.37017421824862595	0.9040535135672823	0.5066221310339664	0.35996816626183076	1.0434426784052588	0.5273993424384321	0.3728788650710839	1.0606888765857272	0.5406647401368967	0.3575915344615671	1.016422041146699	0.563743022442285	0.37128782072400085	0.09393792500283428	0.47551575518003275	0.35306610416959944	-0.14389151829534227	0.41993187552136185	0.3546579447432832	-0.38825901082789444	0.35978683865977523	0.34769066911458296	-0.46962501174421006	0.3134198126583528	0.37199264990306125	-0.5153605016365717	0.35741600410688296	0.3509213342772084	-0.51661653131924	0.3705050685667535	0.3469335340963303
